<svg viewBox="0 0 375 422" xmlns="http://www.w3.org/2000/svg" xml:space="preserve" style="fill-rule:evenodd;clip-rule:evenodd;stroke-linecap:round;stroke-linejoin:round;stroke-miterlimit:1.5"><g id="Artboard1" transform="translate(-312.787 -303.371)"><path style="fill:none" d="M312.787 303.371h374.426v421.614H312.787z"/><clipPath id="_clip1"><path d="M312.787 303.371h374.426v421.614H312.787z"/></clipPath><g clip-path="url('#_clip1')"><circle cx="13.152" cy="426.639" r="187.213" style="fill:#fac218" transform="translate(487.635 111.504)"/><g id="Layer2"><path d="M554.435 318.333V395" style="fill:none;stroke:#fff;stroke-width:15px" transform="scale(-1 1) rotate(27.62 -6.997 -1625.676)"/><path d="M375.611 491.759a7.892 7.892 0 0 0-7.098-6.497c-11.212-.988-34.211-3.842-40.119-10.921-23.746-28.454 8.02-24.029 47.812-41.564 10.75-4.737 21.589-9.277 32.246-14.219 7.965-3.694 24.035-4.711 22.684-13.386-.627-4.03-6.296-6.882-5.461-11.422 1.123-6.111 11.609-10.216 10.535-16.753-1.545-9.402-13.816-13.171-21.328-19.033-17.107-13.352-73.274-53.545-83.707-60.714-.211-.145-7.863-1.66-7-4.096 2.01-5.675 11.501-16.688 15.5-19.904 19.564-15.732 48.689-25.368 73.706-24.71 10.333.272 20.936 3.16 30.623 6.179 33.062 10.303 60.083 30.644 76.452 61.469 10.395 19.574 15.799 44.114 20.219 65.562.884 4.289-9.313 1.52-9.5 5.5-.282 5.988 5.15 16.936 1.5 23-2.708 4.498-6.639 8.642-11.398 12.454a11.06 11.06 0 0 0-3.975 6.626c-.412 2.016-.683 4.066-.127 5.72 2.389 7.111 23.889 24.126 14.333 29.333-9.889 5.389-52.944-3.055-73.666 3-19.405 5.671-38.056 26.611-50.667 33.334-7.637 4.07-19.592 9.5-25 7-3.429-1.586-5.505-10.007-6.564-15.958Z" style="fill:#1f2f56" transform="matrix(-1 0 0 1 920.414 159.713)"/><path d="M547.992 396.317a16.503 16.503 0 0 0 5.831-6.314c1.584-3.008 2.495-6.663 1.543-11.281-4.694-22.778-10.622-48.782-21.662-69.57-18.273-34.41-48.329-57.252-85.238-68.754-10.964-3.417-22.994-6.545-34.691-6.853-28.343-.746-61.335 10.192-83.5 28.016-5.296 4.259-17.577 19.069-20.239 26.585-1.97 5.561-1.116 10.877 2.732 15.648 1.5 1.859 3.854 3.837 6.859 5.293 1.403.679 3.376 1.354 4.93 1.839 13.935 9.709 64.988 46.29 81.096 58.862 3.42 2.67 7.668 5.017 11.693 7.486.276.17.584.373.903.596-1.074 1.147-2.11 2.314-2.785 3.206-2.36 3.12-3.901 6.473-4.542 9.962-.553 3.008.429 6.828 1.79 10.291l-.349.107c-3.749 1.073-7.378 2.195-10.221 3.514-10.57 4.901-21.322 9.402-31.985 14.101-20.022 8.823-38.016 12.149-48.027 16.821-8.327 3.886-13.177 9.125-15.39 14.843-2.79 7.208-2.391 18.225 10.137 33.237 3.107 3.722 8.573 7.337 15.705 9.838 8.724 3.059 20.55 4.899 29.383 5.88 1.061 4.394 2.537 8.957 4.314 12.213 2.627 4.813 6.198 7.876 9.602 9.449 3.889 1.798 9.139 2.555 15.151 1.532 7.249-1.233 16.575-5.38 23.199-8.91 6.883-3.67 15.518-11.082 24.977-18.488 7.147-5.596 14.838-11.346 22.841-13.685 13.384-3.911 36.871-.752 52.884-.519 10.861.158 19.421-1.347 23.753-3.707 4.932-2.688 7.638-6.381 9.096-10.37 1.652-4.519 1.687-10.101-.981-16.147-2.212-5.011-9.547-14.226-13.418-18.915 5.006-4.38 9.123-9.119 12.143-14.137 2.558-4.249 3.684-9.428 3.357-15.11-.123-2.119-.453-4.339-.891-6.559Zm-172.381 95.442a7.892 7.892 0 0 0-7.098-6.497c-11.212-.988-34.211-3.842-40.119-10.921-23.746-28.454 8.02-24.029 47.812-41.564 10.75-4.737 21.589-9.277 32.246-14.219 7.965-3.694 24.035-4.711 22.684-13.386-.627-4.03-6.296-6.882-5.461-11.422 1.123-6.111 11.609-10.216 10.535-16.753-1.545-9.402-13.816-13.171-21.328-19.033-17.107-13.352-73.274-53.545-83.707-60.714-.211-.145-7.863-1.66-7-4.096 2.01-5.675 11.501-16.688 15.5-19.904 19.564-15.732 48.689-25.368 73.706-24.71 10.333.272 20.936 3.16 30.623 6.179 33.062 10.303 60.083 30.644 76.452 61.469 10.395 19.574 15.799 44.114 20.219 65.562.884 4.289-9.313 1.52-9.5 5.5-.282 5.988 5.15 16.936 1.5 23-2.708 4.498-6.639 8.642-11.398 12.454a11.06 11.06 0 0 0-3.975 6.626c-.412 2.016-.683 4.066-.127 5.72 2.389 7.111 23.889 24.126 14.333 29.333-9.889 5.389-52.944-3.055-73.666 3-19.405 5.671-38.056 26.611-50.667 33.334-7.637 4.07-19.592 9.5-25 7-3.429-1.586-5.505-10.007-6.564-15.958Z" style="fill:#fff" transform="matrix(-1 0 0 1 920.414 159.713)"/><path d="M326.675 295.75c-54.595 71.276-15.29 159.46-2 161 14.747 1.709 110.061-42.996 110-44.5-1.086-26.654 14.382-36.105 12-41-32.448-66.687-112.152-85.746-120-75.5Z" style="fill:#161e30;stroke:#fff;stroke-width:15px" transform="matrix(-1 0 0 1 920.414 159.713)"/><circle cx="434.023" cy="372.55" r="30.125" style="fill:#12192a;stroke:#fff;stroke-width:20.74px" transform="matrix(-.72337 0 0 .72337 782.104 290.441)"/><path d="M.132-.477A.065.065 0 0 1 .1-.519a.063.063 0 0 1 .008-.052.066.066 0 0 1 .041-.03.07.07 0 0 1 .051.008l.31.192a.072.072 0 0 1 .034.061v.035a.072.072 0 0 1-.034.062l-.312.194A.065.065 0 0 1 .11-.068C.1-.083.096-.102.1-.119a.067.067 0 0 1 .031-.042l.213-.126a.038.038 0 0 0 .02-.035.042.042 0 0 0-.02-.035l-.212-.12Z" style="fill:#fff;fill-rule:nonzero;stroke:#fff;stroke-width:.09px;stroke-linecap:butt;stroke-miterlimit:2" transform="matrix(53.91676 0 0 53.91676 530.021 546.014)"/><path d="M.564.155c0 .02-.016.036-.036.036H.09A.04.04 0 0 1 .051.152v-.05C.051.081.069.064.09.064h.438c.02 0 .036.016.036.035v.056Z" style="fill:#fff;fill-rule:nonzero;stroke:#fff;stroke-width:.09px;stroke-linecap:butt;stroke-miterlimit:2" transform="matrix(53.91676 0 0 53.91676 562.467 549.649)"/><g transform="matrix(-.6837 .35774 .35774 .6837 629.62 -28.7)"><circle cx="483.031" cy="301.667" r="16.969" style="fill:#1f2f56"/><path d="M483.031 272.085c16.327 0 29.582 13.255 29.582 29.582 0 16.326-13.255 29.581-29.582 29.581-16.326 0-29.581-13.255-29.581-29.581 0-16.327 13.255-29.582 29.581-29.582Zm0 12.613c9.366 0 16.969 7.603 16.969 16.969 0 9.365-7.603 16.968-16.969 16.968-9.365 0-16.969-7.603-16.969-16.968 0-9.366 7.604-16.969 16.969-16.969Z" style="fill:#fff"/></g></g></g></g></svg>