<?xml version="1.0" encoding="UTF-8" standalone="no"?>
<!DOCTYPE svg PUBLIC "-//W3C//DTD SVG 1.1//EN" "http://www.w3.org/Graphics/SVG/1.1/DTD/svg11.dtd">
<svg width="100%" height="100%" viewBox="0 0 375 422" version="1.1" xmlns="http://www.w3.org/2000/svg" xmlns:xlink="http://www.w3.org/1999/xlink" xml:space="preserve" xmlns:serif="http://www.serif.com/" style="fill-rule:evenodd;clip-rule:evenodd;stroke-linecap:round;stroke-linejoin:round;stroke-miterlimit:1.5;">
    <g id="Artboard1" transform="matrix(1,0,0,1,-312.787,-303.371)">
        <rect x="312.787" y="303.371" width="374.426" height="421.614" style="fill:none;"/>
        <clipPath id="_clip1">
            <rect x="312.787" y="303.371" width="374.426" height="421.614"/>
        </clipPath>
        <g clip-path="url(#_clip1)">
            <g transform="matrix(1,0,0,1,487.635,111.504)">
                <circle cx="13.152" cy="426.639" r="187.213" style="fill:rgb(250,194,24);"/>
            </g>
            <g id="Layer2" transform="matrix(1,0,0,1,-232.176,162.002)">
                <g transform="matrix(-0.88604,0.46361,0.46361,0.88604,986.653,-344.021)">
                    <path d="M554.435,318.333L554.435,395" style="fill:none;stroke:white;stroke-width:15px;"/>
                </g>
                <g transform="matrix(-1,0,0,1,1152.59,-2.28868)">
                    <path d="M375.611,491.759C374.992,488.235 372.078,485.568 368.513,485.262C357.301,484.274 334.302,481.42 328.394,474.341C304.648,445.887 336.414,450.312 376.206,432.777C386.956,428.04 397.795,423.5 408.452,418.558C416.417,414.864 432.487,413.847 431.136,405.172C430.509,401.142 424.84,398.29 425.675,393.75C426.798,387.639 437.284,383.534 436.21,376.997C434.665,367.595 422.394,363.826 414.882,357.964C397.775,344.612 341.608,304.419 331.175,297.25C330.964,297.105 323.312,295.59 324.175,293.154C326.185,287.479 335.676,276.466 339.675,273.25C359.239,257.518 388.364,247.882 413.381,248.54C423.714,248.812 434.317,251.7 444.004,254.719C477.066,265.022 504.087,285.363 520.456,316.188C530.851,335.762 536.255,360.302 540.675,381.75C541.559,386.039 531.362,383.27 531.175,387.25C530.893,393.238 536.325,404.186 532.675,410.25C529.967,414.748 526.036,418.892 521.277,422.704C519.199,424.363 517.787,426.715 517.302,429.33C516.89,431.346 516.619,433.396 517.175,435.05C519.564,442.161 541.064,459.176 531.508,464.383C521.619,469.772 478.564,461.328 457.842,467.383C438.437,473.054 419.786,493.994 407.175,500.717C399.538,504.787 387.583,510.217 382.175,507.717C378.746,506.131 376.67,497.71 375.611,491.759Z" style="fill:rgb(31,47,86);"/>
                    <path d="M547.992,396.317C550.614,394.65 552.519,392.479 553.823,390.003C555.407,386.995 556.318,383.34 555.366,378.722C550.672,355.944 544.744,329.94 533.704,309.152C515.431,274.742 485.375,251.9 448.466,240.398C437.502,236.981 425.472,233.853 413.775,233.545C385.432,232.799 352.44,243.737 330.275,261.561C324.979,265.82 312.698,280.63 310.036,288.146C308.066,293.707 308.92,299.023 312.768,303.794C314.268,305.653 316.622,307.631 319.627,309.087C321.03,309.766 323.003,310.441 324.557,310.926C338.492,320.635 389.545,357.216 405.653,369.788C409.073,372.458 413.321,374.805 417.346,377.274C417.622,377.444 417.93,377.647 418.249,377.87C417.175,379.017 416.139,380.184 415.464,381.076C413.104,384.196 411.563,387.549 410.922,391.038C410.369,394.046 411.351,397.866 412.712,401.329L412.363,401.436C408.614,402.509 404.985,403.631 402.142,404.95C391.572,409.851 380.82,414.352 370.157,419.051C350.135,427.874 332.141,431.2 322.13,435.872C313.803,439.758 308.953,444.997 306.74,450.715C303.95,457.923 304.349,468.94 316.877,483.952C319.984,487.674 325.45,491.289 332.582,493.79C341.306,496.849 353.132,498.689 361.965,499.67C363.026,504.064 364.502,508.627 366.279,511.883C368.906,516.696 372.477,519.759 375.881,521.332C379.77,523.13 385.02,523.887 391.032,522.864C398.281,521.631 407.607,517.484 414.231,513.954C421.114,510.284 429.749,502.872 439.208,495.466C446.355,489.87 454.046,484.12 462.049,481.781C475.433,477.87 498.92,481.029 514.933,481.262C525.794,481.42 534.354,479.915 538.686,477.555C543.618,474.867 546.324,471.174 547.782,467.185C549.434,462.666 549.469,457.084 546.801,451.038C544.589,446.027 537.254,436.812 533.383,432.123C538.389,427.743 542.506,423.004 545.526,417.986C548.084,413.737 549.21,408.558 548.883,402.876C548.76,400.757 548.43,398.537 547.992,396.317ZM375.611,491.759C374.992,488.235 372.078,485.568 368.513,485.262C357.301,484.274 334.302,481.42 328.394,474.341C304.648,445.887 336.414,450.312 376.206,432.777C386.956,428.04 397.795,423.5 408.452,418.558C416.417,414.864 432.487,413.847 431.136,405.172C430.509,401.142 424.84,398.29 425.675,393.75C426.798,387.639 437.284,383.534 436.21,376.997C434.665,367.595 422.394,363.826 414.882,357.964C397.775,344.612 341.608,304.419 331.175,297.25C330.964,297.105 323.312,295.59 324.175,293.154C326.185,287.479 335.676,276.466 339.675,273.25C359.239,257.518 388.364,247.882 413.381,248.54C423.714,248.812 434.317,251.7 444.004,254.719C477.066,265.022 504.087,285.363 520.456,316.188C530.851,335.762 536.255,360.302 540.675,381.75C541.559,386.039 531.362,383.27 531.175,387.25C530.893,393.238 536.325,404.186 532.675,410.25C529.967,414.748 526.036,418.892 521.277,422.704C519.199,424.363 517.787,426.715 517.302,429.33C516.89,431.346 516.619,433.396 517.175,435.05C519.564,442.161 541.064,459.176 531.508,464.383C521.619,469.772 478.564,461.328 457.842,467.383C438.437,473.054 419.786,493.994 407.175,500.717C399.538,504.787 387.583,510.217 382.175,507.717C378.746,506.131 376.67,497.71 375.611,491.759Z" style="fill:white;"/>
                </g>
                <g transform="matrix(-1,0,0,1,1152.59,-2.28868)">
                    <path d="M326.675,295.75C272.08,367.026 311.385,455.21 324.675,456.75C339.422,458.459 434.736,413.754 434.675,412.25C433.589,385.596 449.057,376.145 446.675,371.25C414.227,304.563 334.523,285.504 326.675,295.75Z" style="fill:rgb(22,30,48);stroke:white;stroke-width:15px;"/>
                </g>
                <g transform="matrix(-0.723375,0,0,0.723375,1014.28,128.439)">
                    <circle cx="434.023" cy="372.55" r="30.125" style="fill:rgb(18,25,42);stroke:white;stroke-width:20.74px;"/>
                </g>
                <g transform="matrix(0.827594,0,0,0.827594,486.884,45.5261)">
                    <g transform="matrix(65.1488,0,0,65.1488,332.667,409)">
                        <path d="M0.132,-0.477C0.116,-0.486 0.104,-0.501 0.1,-0.519C0.095,-0.537 0.098,-0.556 0.108,-0.571C0.108,-0.571 0.108,-0.571 0.108,-0.571C0.117,-0.586 0.132,-0.597 0.149,-0.601C0.167,-0.605 0.185,-0.602 0.2,-0.593C0.285,-0.541 0.441,-0.444 0.51,-0.401C0.531,-0.388 0.544,-0.365 0.544,-0.34L0.544,-0.305C0.544,-0.279 0.531,-0.256 0.51,-0.243C0.44,-0.199 0.281,-0.101 0.198,-0.049C0.168,-0.031 0.129,-0.039 0.11,-0.068C0.11,-0.068 0.11,-0.068 0.11,-0.068C0.1,-0.083 0.096,-0.102 0.1,-0.119C0.104,-0.137 0.116,-0.152 0.131,-0.161C0.191,-0.197 0.284,-0.251 0.344,-0.287C0.357,-0.294 0.364,-0.307 0.364,-0.322C0.364,-0.336 0.356,-0.35 0.344,-0.357C0.283,-0.391 0.192,-0.443 0.132,-0.477Z" style="fill:white;fill-rule:nonzero;stroke:white;stroke-width:0.09px;stroke-linecap:butt;stroke-miterlimit:2;"/>
                    </g>
                    <g transform="matrix(65.1488,0,0,65.1488,371.872,413.392)">
                        <path d="M0.564,0.155C0.564,0.175 0.548,0.191 0.528,0.191C0.435,0.191 0.186,0.191 0.09,0.191C0.069,0.191 0.051,0.173 0.051,0.152L0.051,0.102C0.051,0.081 0.069,0.064 0.09,0.064L0.528,0.064C0.548,0.064 0.564,0.08 0.564,0.099C0.564,0.117 0.564,0.138 0.564,0.155Z" style="fill:white;fill-rule:nonzero;stroke:white;stroke-width:0.09px;stroke-linecap:butt;stroke-miterlimit:2;"/>
                    </g>
                </g>
                <g transform="matrix(-0.683703,0.357739,0.357739,0.683703,861.796,-190.702)">
                    <circle cx="483.031" cy="301.667" r="16.969" style="fill:rgb(31,47,86);"/>
                    <path d="M483.031,272.085C499.358,272.085 512.613,285.34 512.613,301.667C512.613,317.993 499.358,331.248 483.031,331.248C466.705,331.248 453.45,317.993 453.45,301.667C453.45,285.34 466.705,272.085 483.031,272.085ZM483.031,284.698C492.397,284.698 500,292.301 500,301.667C500,311.032 492.397,318.635 483.031,318.635C473.666,318.635 466.062,311.032 466.062,301.667C466.062,292.301 473.666,284.698 483.031,284.698Z" style="fill:white;"/>
                </g>
            </g>
        </g>
    </g>
</svg>
